<?xml version="1.0" encoding="utf-8"?>
<!-- Generator: Adobe Illustrator 19.2.0, SVG Export Plug-In . SVG Version: 6.00 Build 0)  -->
<svg version="1.1" id="Layer_1" xmlns="http://www.w3.org/2000/svg" xmlns:xlink="http://www.w3.org/1999/xlink" x="0px" y="0px"
	 viewBox="0 0 903.9 313.6" style="enable-background:new 0 0 903.9 313.6;" xml:space="preserve">
<style type="text/css">
	.st0{fill:#E42313;}
</style>
<g>
	<g>
		<g>
			<g>
				<polygon points="719.2,19.7 743,19.7 743,10.9 660.1,10.9 660.1,19.7 684,19.7 684,186.6 660.1,186.6 660.1,195.3 743,195.3 
					743,186.6 719.2,186.6 				"/>
				<path d="M870.3,195.3v-8.7h-25.4V17.9c38.9-1.9,45.5,6.4,50.5,41.7h8.5l-3-48.6H753.2l-3,48.6h8.8c5-35.3,11.6-43.6,50.5-41.7
					v168.8H784v8.7H870.3"/>
				<path d="M313.8,90V19.6h24c24.6,0,33.7,6.2,33.7,37.2c0,24.7-10.2,33.2-35.1,33.2H313.8 M644.3,19.6v-8.7h-68l-40,126.1
					L497.7,10.9h-67.8v8.7h23.8v167.1l-25.7,0c-23.9,0.6-24.3-19.8-24.2-24c0.3-45-9.7-61.3-52.8-68v-0.6
					c25.7-2.7,58.5-10,58.5-41.2c0-38.4-35.8-42-66-42h-88.9v8.7h23.8v167h-23.8v8.7h83v-8.7h-23.8V98.6c15.3-0.6,32.5,3.3,40.3,10
					c7.2,6.1,11.1,25,11.1,47.9c0,28.2,14.6,38.9,42.5,38.9c8,0,79.9,0,79.9,0v-8.6h-23.3V22.5h0.6l54.9,172.8h9.3l55.2-172.8h0.8
					v164.2h-23.7v8.6h82.8v-8.6h-23.8V19.6H644.3z"/>
			</g>
			<path class="st0" d="M107.9,0H80.3v22.4H34.5V69H0v68.5h34.5v46.6h45.8v22.3h24.3c56.7,0,106.8-45.8,106.8-103
				C211.4,46.7,164.7,0,107.9,0"/>
		</g>
		<g>
			<path d="M278.4,251.1c0-1.5-0.8-2.3-2.3-2.3h-4.4v-8.8h10.3c4.6,0,6.6,1.9,6.6,6.6v40c0,10.8,6.9,17.3,17.3,17.3
				c10.4,0,17.3-6.5,17.3-17.4v-39.9c0-4.6,2-6.6,6.7-6.6h10.2v8.8h-4.4c-1.4,0-2.2,0.7-2.2,2.3v35.9c0,15.8-11,26.5-27.4,26.5
				c-16.6,0-27.6-10.8-27.6-26.5V251.1z"/>
			<path d="M347.1,303.6h4.4c1.4,0,2.3-0.8,2.3-2.3v-61.2h9.3l32.1,45.8c2.7,3.9,6,9.8,6,9.8h0.2c0,0-0.7-5.7-0.7-9.8v-39.2
				c0-4.6,1.9-6.6,6.7-6.6h10.2v8.8h-4.4c-1.4,0-2.3,0.7-2.3,2.3v61.2h-9.2l-32.3-45.8c-2.7-3.9-5.9-9.8-5.9-9.8h-0.2
				c0,0,0.6,5.8,0.6,9.8v39.2c0,4.6-1.9,6.6-6.6,6.6h-10.3V303.6z"/>
			<path d="M428.8,303.6h7.1v-54.7h-7.1v-8.8h23.9v8.8h-7.1v54.7h7.1v8.8h-23.9V303.6z"/>
			<path d="M463.8,251.1c-0.6-1.8-1.6-2.3-3.4-2.3H459v-8.8h5.7c5.1,0,6.9,1.1,8.5,5.9l15.9,44.5c1.3,3.9,2.8,9.9,2.8,9.9h0.2
				c0,0,1.3-6,2.8-9.9l15.9-44.5c1.7-4.8,3.4-5.9,8.5-5.9h5.7v8.8h-1.4c-1.8,0-2.8,0.4-3.4,2.3l-22.7,61.2h-10.8L463.8,251.1z"/>
			<path d="M537.5,248.9h-6.6v-8.8h42.5c4.6,0,6.5,1.9,6.5,6.6v9.1h-9.3v-4.6c0-1.5-0.8-2.3-2.3-2.3h-20.6v22.6h25.3v8.8h-25.3v21
				c0,1.4,0.8,2.3,2.3,2.3h21.1c1.4,0,2.3-0.8,2.3-2.3v-4.6h9.4v9.1c0,4.6-1.9,6.6-6.6,6.6h-32.2c-4.6,0-6.6-1.9-6.6-6.6V248.9z"/>
			<path d="M597.2,248.9h-6.7v-8.8H622c12.7,0,21.6,8,21.6,21.2c0,12.1-7.9,18-13,19.1v0.2c0,0,1.9,0.9,3.1,3.3l8.7,17.3
				c1,2.2,2.7,2.4,5.1,2.4h1.3v8.8h-5c-5.6,0-7.7-0.7-10-5.4l-9.8-19.4c-1.8-3.4-3.2-3.9-7.2-3.9h-9.4v28.8h-10.2V248.9z
				 M620.7,274.8c7.8,0,12.4-5,12.4-13.1c0-8.1-4.6-12.8-12.2-12.8h-13.5v25.9H620.7z"/>
			<path d="M662,295.6c0,0,7.4,8.7,18.1,8.7c6.8,0,12.4-4.1,12.4-10.8c0-15.2-34.9-12.8-34.9-35.3c0-10.8,9.5-19.4,23.1-19.4
				c7.7,0,20.6,3.5,20.6,13.3v5.9h-9.4v-3.4c0-3.8-5.4-6.6-11.2-6.6c-7.8,0-12.7,4.3-12.7,9.7c0,14.6,34.8,11.4,34.8,35.1
				c0,11.1-8.6,20.6-22.9,20.6c-15.4,0-24-10.8-24-10.8L662,295.6z"/>
			<path d="M713.6,303.6h7.1v-54.7h-7.1v-8.8h23.9v8.8h-7.1v54.7h7.1v8.8h-23.9V303.6z"/>
			<path d="M770,248.9h-14.5c-1.4,0-2.2,0.7-2.2,2.3v4.6h-9.1v-9.5c0-4.6,1.5-6.1,6.1-6.1H800c4.6,0,6.1,1.5,6.1,6.1v9.5H797v-4.6
				c0-1.5-0.8-2.3-2.3-2.3h-14.5v63.5H770V248.9z"/>
			<path d="M835.3,280.8L817,251.4c-1.3-2.2-2.3-2.6-4.4-2.6h-2v-8.8h4.7c4.9,0,6.9,0.7,9.7,5.5l11,18.2c2.4,4,4.4,8.1,4.4,8.1h0.2
				c0,0,1.9-4.1,4.4-8.1l10.9-18.2c2.9-4.8,4.9-5.5,9.7-5.5h4.7v8.8h-2c-2.1,0-3.2,0.4-4.5,2.6l-18.2,29.4v31.5h-10.2V280.8z"/>
		</g>
	</g>
</g>
</svg>
